<svg xmlns="http://www.w3.org/2000/svg" version="1.1" xmlns:xlink="http://www.w3.org/1999/xlink" xmlns:svgjs="http://svgjs.dev/svgjs" width="2000" height="1247" viewBox="0 0 2000 1247"><g transform="matrix(1,0,0,1,-1.2121212121212466,0.504858299595071)"><svg viewBox="0 0 396 247" data-background-color="#8d021f" preserveAspectRatio="xMidYMid meet" height="1247" width="2000" xmlns="http://www.w3.org/2000/svg" xmlns:xlink="http://www.w3.org/1999/xlink"><g id="tight-bounds" transform="matrix(1,0,0,1,0.2400000000000091,-0.09999999999999432)"><svg viewBox="0 0 395.52 247.2" height="247.2" width="395.52"><g><svg></svg></g><g><svg viewBox="0 0 395.52 247.2" height="247.2" width="395.52"><g><g><path d="M2.728 39.345h68.858l-1.665 10.265-21.362 5.16 12.332 21.817h-29.132l-12.052-21.262-18.699-5.715zM121.8 55.325l-24.746-5.715 1.331-10.265h60.313l-1.387 10.265-16.923 5.16-12.522 21.817h-17.611zM93.669 192.43l22.083 4.605-1.387 10.82h-68.525l1.332-10.043 20.308-6.325 0-20.874 26.189 0zM172.514 197.812l22.583-6.325 1.514-20.874 18.01 0-1.602 21.817 24.746 4.605-1.72 10.82h-65.029zM204.973 55.325l-24.746-5.715 1.331-10.265h54.598l10.542 26.3 3.893 10.942-47.16 0zM323.823 61.151l9.599-21.806h53.489l-1.332 10.265-22.749 5.16 1.117 21.817-26.729 0-0.3-4.727-1.888 4.727-17.365 0zM369.876 192.43l24.636 4.605-1.332 10.82h-72.63l1.498-10.043 22.472-6.325-1.327-20.874 25.567 0zM285.316 201.086l-17.311 2.552-12.112-33.025 41.592 0z" fill="#ffffff" fill-rule="nonzero" stroke="none" stroke-width="1" stroke-linecap="butt" stroke-linejoin="miter" stroke-miterlimit="10" stroke-dasharray="" stroke-dashoffset="0" font-family="none" font-weight="none" font-size="none" text-anchor="none" style="mix-blend-mode: normal" data-fill-palette-color="tertiary"></path></g></g><g transform="matrix(1,0,0,1,0,91.66530612244898)"><svg viewBox="0 0 395.52 63.86938775510204" height="63.86938775510204" width="395.52"><g><svg viewBox="0 0 395.52 63.86938775510204" height="63.86938775510204" width="395.52"><g><svg viewBox="0 0 395.52 63.86938775510204" height="63.86938775510204" width="395.52"><g><svg viewBox="0 0 395.52 63.86938775510204" height="63.86938775510204" width="395.52"><g><svg viewBox="0 0 395.52 63.86938775510204" height="63.86938775510204" width="395.52"><g><svg viewBox="0 0 395.52 63.86938775510204" height="63.86938775510204" width="395.52"><g transform="matrix(1,0,0,1,0,0)"><svg width="395.52" viewBox="-0.51 -30.37 246.41 39.79" height="63.86938775510204" data-palette-color="#ffffff"><path d="M-0.51-28.52L2.86-27.49 11.47-12.3 11.47-2.95 7.81-1.81 7.57 0 19.92 0 20.17-1.95 16.19-2.78 16.19-12.92 24.61-27.59 27.66-28.52 27.91-30.37 17.04-30.37 16.8-28.52 21.26-27.49 14.82-15.63 8.06-27.59 11.91-28.52 12.21-30.37-0.2-30.37-0.51-28.52ZM35.47 0.59Q38.11 0.59 39.78-0.62 41.45-1.83 42.16-3.2L42.16-3.2 42.43-3.2 42.43-2.83Q42.43-2.03 42.81-1.28 43.19-0.54 44.04-0.05 44.89 0.44 46.21 0.44L46.21 0.44Q47.24 0.44 48.41 0.17L48.41 0.17Q49.17 0.02 49.53-0.02L49.53-0.02 49.85-2.12 48.63-2.34Q47.48-2.54 46.91-2.87 46.34-3.2 46.12-3.82 45.9-4.44 45.9-5.62L45.9-5.62 45.9-14.48Q45.9-18.38 44.49-20.18 43.09-21.97 39.87-21.97L39.87-21.97Q38.16-21.97 36.18-21.26 34.2-20.56 32.86-19.4 31.52-18.24 31.52-16.97L31.52-16.97Q31.52-15.38 32.49-14.92 33.47-14.45 34.91-14.45L34.91-14.45Q35.13-16.92 35.29-17.85 35.45-18.77 35.96-19.24 36.47-19.7 37.62-19.7L37.62-19.7Q39.94-19.7 40.94-17.86 41.94-16.02 41.94-13.18L41.94-13.18 41.94-11.84Q38.13-11.57 35.61-10.44 33.08-9.3 31.88-7.64 30.69-5.98 30.69-4.1L30.69-4.1Q30.69-2.66 31.33-1.6 31.98-0.54 33.08 0.02 34.18 0.59 35.47 0.59L35.47 0.59ZM41.94-10.45L41.94-4.59Q41.21-3.78 40.04-3.1 38.86-2.42 37.69-2.42L37.69-2.42Q36.84-2.42 36.22-2.86 35.59-3.3 35.28-3.96 34.96-4.61 34.96-5.25L34.96-5.25Q34.96-7.13 36.55-8.41 38.13-9.69 41.94-10.45L41.94-10.45ZM62.03 0L62.37-1.93 58.74-2.78 58.74-16.48Q59.64-17.48 60.91-18.03 62.18-18.58 63.54-18.58L63.54-18.58Q65.47-18.58 66.63-17.47 67.79-16.36 67.79-14.09L67.79-14.09 67.79-2.78 64.42-1.78 64.18 0 75.14 0 75.39-1.93 71.87-2.78 71.87-15.04Q71.87-18.33 70.36-20.14 68.84-21.95 65.99-21.95L65.99-21.95Q63.84-21.95 61.93-20.85 60.03-19.75 58.64-18.09L58.64-18.09 58.39-18.09 58.81-21.22 58.39-21.68 51.12-20.73 50.87-18.87 54.63-17.6 54.63-2.78 50.95-1.78 50.7 0 62.03 0ZM85.1 9.42Q87.83 9.42 90.45 8.25 93.06 7.08 94.68 5.19 96.31 3.3 96.31 1.22L96.31 1.22Q96.31-1.34 94.41-2.51 92.52-3.69 89.54-3.69L89.54-3.69 86.22-3.69Q83.59-3.69 82.67-4.14 81.76-4.59 81.76-5.44L81.76-5.44Q81.76-6.32 82.98-7.59L82.98-7.59Q83.27-7.52 83.9-7.43 84.54-7.35 85.17-7.35L85.17-7.35Q87.08-7.35 88.99-8.26 90.91-9.18 92.17-10.84 93.43-12.5 93.43-14.62L93.43-14.62Q93.43-15.45 93.16-16.41 92.89-17.36 92.6-18.02L92.6-18.02 92.6-18.43 95.6-17.46 95.99-17.46 96.94-20.17 96.45-20.73Q95.7-20.65 93.94-20.52 92.18-20.39 91.2-20.34L91.2-20.34Q89.08-21.88 86.08-21.88L86.08-21.88Q84.05-21.88 82.16-20.84 80.27-19.8 79.09-18.07 77.92-16.33 77.92-14.38L77.92-14.38Q77.92-12.87 78.62-11.5 79.31-10.13 80.27-9.24 81.22-8.35 81.9-8.18L81.9-8.18 81.9-8.01Q81-7.64 80.03-6.93 79.07-6.23 78.45-5.43 77.82-4.64 77.82-4L77.82-4Q77.82-2.95 78.43-2.08 79.05-1.2 80.17-0.66L80.17-0.66 80.17-0.44Q76.26 1.78 76.26 3.96L76.26 3.96Q76.26 6.86 78.76 8.14 81.27 9.42 85.1 9.42L85.1 9.42ZM85.49-20.09Q86.71-20.09 87.6-19.19 88.49-18.29 88.97-16.92 89.45-15.55 89.45-14.16L89.45-14.16Q89.45-11.67 88.51-10.47 87.57-9.28 85.86-9.28L85.86-9.28Q84.93-9.28 83.99-9.99 83.05-10.69 82.44-11.96 81.83-13.23 81.83-14.84L81.83-14.84Q81.83-17.31 82.74-18.7 83.66-20.09 85.49-20.09L85.49-20.09ZM81.83-0.07L86.08-0.07Q88.44-0.07 89.71 0.11 90.98 0.29 91.58 0.83 92.18 1.37 92.18 2.44L92.18 2.44Q92.18 4.71 90.61 5.76 89.03 6.81 86.42 6.81L86.42 6.81Q80.56 6.81 80.56 2.64L80.56 2.64Q80.56 1.64 80.84 1.04 81.12 0.44 81.47 0.15 81.83-0.15 81.83-0.07L81.83-0.07ZM108.71 0.66Q111.54 0.66 113.88-0.78 116.23-2.22 117.58-4.83 118.94-7.45 118.94-10.77L118.94-10.77Q118.94-14.11 117.78-16.66 116.62-19.21 114.43-20.63 112.25-22.05 109.29-22.05L109.29-22.05Q106.51-22.05 104.08-20.65 101.65-19.26 100.16-16.61 98.67-13.96 98.67-10.4L98.67-10.4Q98.67-7.23 99.86-4.72 101.04-2.22 103.3-0.78 105.56 0.66 108.71 0.66L108.71 0.66ZM108.27-19.48Q110.44-19.48 111.87-17.88 113.3-16.28 113.94-13.84 114.59-11.4 114.59-8.76L114.59-8.76Q114.59-6.96 114.03-5.35 113.47-3.74 112.32-2.72 111.17-1.71 109.54-1.71L109.54-1.71Q107.27-1.71 105.8-3.2 104.34-4.69 103.68-7.06 103.02-9.42 103.02-12.13L103.02-12.13Q103.02-14.14 103.58-15.81 104.14-17.48 105.32-18.48 106.51-19.48 108.27-19.48L108.27-19.48ZM132.43 0L132.78-1.93 129.14-2.78 129.14-16.48Q130.04-17.48 131.31-18.03 132.58-18.58 133.95-18.58L133.95-18.58Q135.88-18.58 137.04-17.47 138.2-16.36 138.2-14.09L138.2-14.09 138.2-2.78 134.83-1.78 134.58 0 145.54 0 145.79-1.93 142.27-2.78 142.27-15.04Q142.27-18.33 140.76-20.14 139.25-21.95 136.39-21.95L136.39-21.95Q134.24-21.95 132.34-20.85 130.43-19.75 129.04-18.09L129.04-18.09 128.8-18.09 129.21-21.22 128.8-21.68 121.52-20.73 121.28-18.87 125.04-17.6 125.04-2.78 121.35-1.78 121.11 0 132.43 0ZM165.83 0L166.1-1.93 162.6-2.78 162.6-16.43Q163.51-17.46 164.78-18.01 166.05-18.55 167.41-18.55L167.41-18.55Q168.59-18.55 169.54-18.02 170.49-17.48 171.04-16.5 171.59-15.53 171.59-14.28L171.59-14.28 171.59-2.78 168.39-1.81 168.12 0 178.94 0 179.18-1.93 175.57-2.78 175.57-16.11Q176.64-17.26 177.7-17.91 178.77-18.55 180.23-18.55L180.23-18.55Q182.14-18.55 183.23-17.33 184.33-16.11 184.33-14.28L184.33-14.28 184.33-2.76 181.28-1.78 181.11 0 191.49 0 191.8-1.93 188.43-2.81 188.43-14.87Q188.43-21.68 182.67-21.68L182.67-21.68Q180.5-21.68 178.63-20.59 176.76-19.51 175.47-17.85L175.47-17.85 175.18-17.85Q174.64-19.92 173.14-20.9 171.64-21.88 169.78-21.88L169.78-21.88Q167.63-21.88 165.69-20.78 163.75-19.68 162.46-18.07L162.46-18.07 162.24-18.07 162.68-21.14 162.24-21.66 154.82-20.63 154.57-18.8 158.48-17.55 158.48-2.78 154.82-1.81 154.57 0 165.83 0ZM198.12 0.59Q200.76 0.59 202.43-0.62 204.11-1.83 204.81-3.2L204.81-3.2 205.08-3.2 205.08-2.83Q205.08-2.03 205.46-1.28 205.84-0.54 206.69-0.05 207.55 0.44 208.87 0.44L208.87 0.44Q209.89 0.44 211.06 0.17L211.06 0.17Q211.82 0.02 212.19-0.02L212.19-0.02 212.5-2.12 211.28-2.34Q210.14-2.54 209.56-2.87 208.99-3.2 208.77-3.82 208.55-4.44 208.55-5.62L208.55-5.62 208.55-14.48Q208.55-18.38 207.15-20.18 205.74-21.97 202.52-21.97L202.52-21.97Q200.81-21.97 198.83-21.26 196.86-20.56 195.51-19.4 194.17-18.24 194.17-16.97L194.17-16.97Q194.17-15.38 195.15-14.92 196.12-14.45 197.56-14.45L197.56-14.45Q197.78-16.92 197.94-17.85 198.1-18.77 198.61-19.24 199.13-19.7 200.27-19.7L200.27-19.7Q202.59-19.7 203.59-17.86 204.59-16.02 204.59-13.18L204.59-13.18 204.59-11.84Q200.79-11.57 198.26-10.44 195.73-9.3 194.54-7.64 193.34-5.98 193.34-4.1L193.34-4.1Q193.34-2.66 193.99-1.6 194.63-0.54 195.73 0.02 196.83 0.59 198.12 0.59L198.12 0.59ZM204.59-10.45L204.59-4.59Q203.86-3.78 202.69-3.1 201.52-2.42 200.35-2.42L200.35-2.42Q199.49-2.42 198.87-2.86 198.25-3.3 197.93-3.96 197.61-4.61 197.61-5.25L197.61-5.25Q197.61-7.13 199.2-8.41 200.79-9.69 204.59-10.45L204.59-10.45ZM226.91 0L227.15-2.12 221.46-2.95 221.46-12.3Q221.71-14.04 222.43-15.23 223.15-16.43 224.03-17.03 224.9-17.63 225.64-17.63L225.64-17.63Q226.34-17.63 227.13-17.37 227.91-17.11 228.62-16.67L228.62-16.67Q230.01-17.85 230.01-19.38L230.01-19.38Q230.01-20.48 229.25-21.3 228.49-22.12 227.3-22.12L227.3-22.12Q226.2-22.12 225.08-21.37 223.95-20.63 222.95-19.14 221.95-17.65 221.32-15.53L221.32-15.53 220.85-15.53 221.34-21.14 220.78-21.73 213.77-20.83 213.43-18.97 217.41-17.77 217.41-2.78 213.67-1.81 213.43 0 226.91 0ZM234.18-18.63L234.08-6.35Q234.06-2.54 235.44-0.99 236.82 0.56 239.28 0.56L239.28 0.56Q241.33 0.56 243.04-0.39 244.75-1.34 245.9-3.03L245.9-3.03 245.39-4.35Q245.39-4.32 244.81-3.96 244.24-3.59 243.46-3.28 242.68-2.98 241.87-2.98L241.87-2.98Q240.58-2.98 239.79-3.42 239.01-3.86 238.65-4.91 238.28-5.96 238.28-7.79L238.28-7.79 238.35-18.58 245.09-18.58 245.31-20.73 238.4-20.73 238.4-26.54 237.11-26.54Q235.79-24.73 234.18-22.95 232.57-21.17 231.08-19.95L231.08-19.95 231.08-18.63 234.18-18.63Z" opacity="1" transform="matrix(1,0,0,1,0,0)" fill="#ffffff" class="undefined-text-0" data-fill-palette-color="primary" id="text-0"></path></svg></g></svg></g></svg></g></svg></g></svg></g></svg></g></svg></g></svg></g><defs></defs></svg><rect width="395.52" height="247.2" fill="none" stroke="none" visibility="hidden"></rect></g></svg></g></svg>